<?xml version="1.0" encoding="utf-8"?>
<!DOCTYPE svg PUBLIC "-//W3C//DTD SVG 1.1//EN" "http://www.w3.org/Graphics/SVG/1.1/DTD/svg11.dtd">
<svg version="1.1" xmlns="http://www.w3.org/2000/svg" xmlns:xlink="http://www.w3.org/1999/xlink" x="0px" y="0px"
	 width="512px" height="512px" viewBox="0 0 512 512" enable-background="new 0 0 512 512" xml:space="preserve">
<path id="opera-4-icon" d="M303.997,251.707c0,46.778-4.511,109.403-47.474,109.403s-48.518-63.238-48.518-110.013
	c0-50.494,8.171-105.502,48.029-105.502C295.89,145.596,303.997,201.209,303.997,251.707z M462,256c0,113.771-92.23,206-206,206
	c-113.771,0-206-92.229-206-206S142.229,50,256,50C369.77,50,462,142.229,462,256z M379.812,254.227
	c0-81.535-53.376-132.215-123.773-132.215c-70.395,0-123.85,50.586-123.85,132.215c0,70.528,49.518,134.762,123.808,134.762
	C330.305,388.988,379.812,324.755,379.812,254.227z" fill="#0096d4"/>
</svg>
